<svg xmlns="http://www.w3.org/2000/svg" width="181.768" height="26" viewBox="0 0 181.768 26"><path d="M50.347,25.412,47.879,14.78,45.5,25.412l-5.345.007L35.767,5.339H41.26l1.932,10.1,2.144-10.1H50.45l2.267,10.094L54.846,5.339h5.4L55.692,25.414l-5.346,0m43.577.006H99.6V5.965H93.924V25.418Zm54.523.019h5.676V5.978h-5.676ZM112.541,12.244c0-2.623-1.187-3.155-3.1-3.155-2.163,0-2.884.99-3,3.346a5.961,5.961,0,0,0-.017,1.113l6.124.01-.009-1.314Zm-6.134,4.939c0,1.986.327,3.213,1.368,3.71a7.685,7.685,0,0,0,2.648.428,19.092,19.092,0,0,0,6.746-1.176v4.534a23.209,23.209,0,0,1-7.394,1.177c-3.125,0-5.375-.662-6.751-1.945-1.75-1.614-2.334-4.3-2.334-8.4,0-3.641.375-6.082,1.667-7.9,1.25-1.779,3.542-2.731,7.209-2.731,3.458,0,5.5.869,6.709,2.565,1.293,1.862,1.459,4.468,1.459,7.116l-.021,2.648-11.041-.025h-.266M87.425,25.917c-6.834,0-8.689-2.656-8.689-10.5,0-8.255,2.025-10.537,9.069-10.537a13.18,13.18,0,0,1,4.919.982v4.87a12.266,12.266,0,0,0-4.836-1.164c-1.983,0-3.031.513-3.242,2.006a28.512,28.512,0,0,0-.253,3.858,23.28,23.28,0,0,0,.253,3.485c.253,1.493,1.3,2.267,3.284,2.267a16.274,16.274,0,0,0,4.809-.705l-.007,4.8a18.632,18.632,0,0,1-5.308.631m6.5-22.768V4.866H99.6V1.275a9.752,9.752,0,0,0-5.675,1.874m54.523.04V4.9h5.676V1.3a9.788,9.788,0,0,0-5.676,1.893m-18.326,1.95a9.61,9.61,0,0,0-5.519,1.95l-.553-1.647a9.664,9.664,0,0,0-5.216,1.829V25.424h5.627l-.013-13.476a9.167,9.167,0,0,1,3.656-1.292c1.631,0,2.04,1.379,2.04,2.666l-.006,12.106,5.38,0V10.7a5.3,5.3,0,0,0-5.394-5.559M30.869,12.349c0-2.63-1.186-3.164-3.1-3.164-2.163,0-2.884.993-3,3.355a5.889,5.889,0,0,0-.016,1.117l6.122.01ZM24.735,17.3c0,1.992.327,3.221,1.368,3.719a7.666,7.666,0,0,0,2.648.429A19.063,19.063,0,0,0,35.5,20.27v4.545a23.137,23.137,0,0,1-7.394,1.18c-3.126,0-5.376-.663-6.751-1.95-1.75-1.618-2.334-4.314-2.334-8.421,0-3.651.375-6.1,1.667-7.923,1.25-1.784,3.543-2.738,7.209-2.738,3.458,0,5.5.871,6.709,2.572,1.292,1.867,1.458,4.48,1.458,7.135l-.021,2.655L25,17.3h-.266m44.019,3.126c2.63-.093,2.891-1.539,2.881-2.156-.028-1.749-1.739-2.33-4.846-3.383l-.2-.067c-2.851-1-5.547-1.939-5.618-6.382-.048-2.988.558-5.017,1.906-6.387S66.36-.005,69.23-.005c1.99,0,5.68.423,7.465,1.327l0,5.653A16.967,16.967,0,0,0,69.6,5.339c-1.861.04-2.718.716-2.7,2.127.022,1.323,1.186,1.727,2.949,2.337a27.676,27.676,0,0,1,3.593,1.463c2.535,1.324,4.2,2.488,4.267,6.439.042,2.61-.608,4.616-1.932,5.961-1.452,1.474-3.776,2.222-6.91,2.222A22.57,22.57,0,0,1,60.99,24.4V18.859a15.029,15.029,0,0,0,7.765,1.568m93.525,5.465a21.361,21.361,0,0,1-7.057-1.241V19.787a13.885,13.885,0,0,0,7.05,1.379c1.64-.053,2.314-.693,2.3-1.52-.022-1.283-1.547-1.7-4.341-2.565-2.585-.827-4.957-1.613-5.021-5.253-.057-3.309.891-6.907,7.379-6.907a19.237,19.237,0,0,1,6.692,1.127l0,4.928a16,16,0,0,0-6.447-1.424c-1.643.033-2.151.587-2.136,1.5.026,1.448,2.34,1.324,5.653,2.854,2.336,1.117,3.766,2.1,3.821,5.288.078,4.508-2.58,6.7-7.888,6.7m-17.757-4.866c-2.381.065-2.067-1.938-2.073-3.344s.007-7.362.007-7.362h4.791l0-4.348-4.807.009-.01-5.617a9.861,9.861,0,0,0-5.677,1.958V5.507l0,.463s-.458.257-.694.425-.358.261-.358.261l1.071,3.7-.016,9.4c0,5.516,2.518,6.133,5.5,6.133a19.344,19.344,0,0,0,4.992-.7V20.491a7.332,7.332,0,0,1-2.731.534m34.514.071c-2.381.065-2.068-1.938-2.073-3.344s.007-7.362.007-7.362h4.791l0-4.348-4.806.009L176.947.435a9.858,9.858,0,0,0-5.676,1.959V5.578l0,.463s-.459.257-.694.425-.358.261-.358.261l1.07,3.7-.016,9.4c0,5.516,2.518,6.133,5.5,6.133a19.3,19.3,0,0,0,4.992-.7V20.561a7.31,7.31,0,0,1-2.731.535M12.241.4l-.007,13.237L5.623.452A9.84,9.84,0,0,0,0,2.388V25.417H5.739l0-12.575L12.316,25.42h5.595V.394L12.241.4" transform="translate(0 0.005)" fill="#111"/></svg>