<svg xmlns="http://www.w3.org/2000/svg" width="381.794" height="330.643" viewBox="0 0 381.794 330.643"><g transform="translate(-1110.171 -249.521)"><path d="M-1240.874-312.925l-190.9,330.643h381.794Z" transform="translate(2541.941 562.446)" fill="#f2e500"/><g transform="translate(1209.596 387.131)"><path d="M-1343.636-217.666a6.843,6.843,0,0,0-9.662-.015l-11.988,11.988a7.3,7.3,0,0,0,0,10.32l31.752,31.753a7.3,7.3,0,0,0,10.322,0l11.988-11.988a6.845,6.845,0,0,0,0-9.678h0l-32.4-32.395Z" transform="translate(1396.836 281.289)" fill="#111"/><path d="M-1326.327-169.411l-31.372-31.372a7.569,7.569,0,0,0-10.7,0h0l-18.873,18.873a7.629,7.629,0,0,0,0,10.789h0l31.285,31.284a7.628,7.628,0,0,0,10.788,0h0l18.873-18.873a7.566,7.566,0,0,0,0-10.7Z" transform="translate(1389.508 286.821)" fill="#111"/><path d="M-1295.095-201.488l-32.4-32.4a6.863,6.863,0,0,0-9.677,0l-11.7,11.7a7.319,7.319,0,0,0,0,10.32l31.753,31.753a7.319,7.319,0,0,0,10.32,0l11.7-11.7A6.863,6.863,0,0,0-1295.095-201.488Z" transform="translate(1402.287 275.911)" fill="#111"/><path d="M-1299.152-255.32l18.333,18.332a.682.682,0,0,0,.964,0h0l9.108-9.108a1.86,1.86,0,0,0,0-2.632h0l-16.666-16.665a1.859,1.859,0,0,0-2.63,0h0l-9.108,9.107a.684.684,0,0,0,0,.966Z" transform="translate(1419.422 265.938)" fill="#111"/><path d="M-1332.839-226.589l32.294,32.292a7.318,7.318,0,0,0,9.985-.336l11.9-11.9,8.654-34.442-16.285-16.287-34.442,8.655-11.9,11.9A7.3,7.3,0,0,0-1332.839-226.589Z" transform="translate(1407.668 268.817)" fill="#111"/></g></g></svg>