<svg xmlns="http://www.w3.org/2000/svg" width="238.663" height="144.122" viewBox="0 0 238.663 144.122"><path d="M10.013,167.908v12.423c0,6.455,15.912,13.68,37.2,13.68s37.2-7.225,37.2-13.68V167.908c-7.583,5.67-21.1,9.314-37.2,9.314S17.593,173.578,10.013,167.908Zm0-46.707v12.426c0,6.461,15.912,13.68,37.2,13.68s37.2-7.219,37.2-13.68V121.2c-7.583,5.679-21.1,9.323-37.2,9.323S17.593,126.881,10.013,121.2Zm0,23.358V156.98c0,6.461,15.912,13.68,37.2,13.68s37.2-7.219,37.2-13.68V144.56c-7.583,5.673-21.1,9.311-37.2,9.311S17.593,150.233,10.013,144.56Zm0,46.7v12.429c0,6.452,15.912,13.677,37.2,13.677s37.2-7.225,37.2-13.677V191.257c-7.583,5.679-21.1,9.317-37.2,9.317S17.593,196.936,10.013,191.257Zm164.262-10.922c0,6.461,15.909,13.68,37.2,13.68s37.2-7.219,37.2-13.68-15.906-13.677-37.2-13.677S174.275,173.883,174.275,180.335Zm-44.931-60.387c-21.293,0-37.2,7.225-37.2,13.677s15.912,13.68,37.2,13.68,37.2-7.219,37.2-13.68S150.637,119.948,129.345,119.948Zm-37.2,24.608v12.427c0,6.449,15.912,13.671,37.2,13.671s37.2-7.222,37.2-13.671V144.557c-7.58,5.673-21.093,9.317-37.2,9.317S99.726,150.23,92.143,144.557Zm82.133,46.71v12.426c0,6.449,15.909,13.671,37.2,13.671s37.2-7.222,37.2-13.671V191.266c-7.58,5.673-21.093,9.317-37.2,9.317S181.856,196.939,174.275,191.266ZM92.143,167.905v12.426c0,6.461,15.912,13.68,37.2,13.68s37.2-7.219,37.2-13.68V167.905c-7.58,5.679-21.093,9.323-37.2,9.323S99.726,173.584,92.143,167.905ZM47.215,73.242c-21.293,0-37.2,7.225-37.2,13.677s15.912,13.68,37.2,13.68,37.2-7.219,37.2-13.68S68.5,73.242,47.215,73.242ZM92.143,191.263v12.421c0,6.461,15.912,13.68,37.2,13.68s37.2-7.219,37.2-13.68V191.263c-7.58,5.673-21.093,9.311-37.2,9.311S99.726,196.936,92.143,191.263ZM10.013,97.85v12.426c0,6.449,15.912,13.671,37.2,13.671s37.2-7.222,37.2-13.671V97.85c-7.583,5.673-21.1,9.317-37.2,9.317S17.593,103.526,10.013,97.85Z" transform="translate(-10.013 -73.241)" fill="#f2e500"/></svg>