<svg xmlns="http://www.w3.org/2000/svg" width="398" height="397.999" viewBox="0 0 398 397.999"><g transform="translate(0)"><path d="M-1202.737,375.854c-109.255,0-198.142-88.887-198.142-198.142S-1311.992-20.43-1202.737-20.43s198.142,88.887,198.142,198.142S-1093.481,375.854-1202.737,375.854Zm0-393.548c-107.747,0-195.406,87.658-195.406,195.406s87.659,195.406,195.406,195.406,195.406-87.659,195.406-195.406S-1094.989-17.694-1202.737-17.694Z" transform="translate(1401.737 21.28)" fill="#f8ab16"/><path d="M-1230.761,376.9c-25.058,0-48.527-20.829-66.085-58.652-17.4-37.488-26.987-87.3-26.987-140.26s9.584-102.772,26.987-140.259c17.557-37.821,41.027-58.652,66.085-58.652s48.527,20.83,66.085,58.652c17.4,37.488,26.985,87.3,26.985,140.259s-9.584,102.772-26.985,140.26C-1182.234,356.071-1205.7,376.9-1230.761,376.9Zm0-395.086c-49.811,0-90.335,88-90.335,196.175s40.525,196.175,90.335,196.175,90.334-88,90.334-196.175S-1180.951-18.186-1230.761-18.186Z" transform="translate(1430.102 21.099)" fill="#f8ab16"/><path d="M-1245.661,376.172c-23.115,0-36.927-100.984-36.927-198.611s13.812-198.611,36.927-198.611,36.928,100.982,36.928,198.611S-1222.546,376.172-1245.661,376.172Zm0-394.487c-16.512,0-34.19,78.706-34.19,195.875,0,52.606,3.69,102.051,10.393,139.229,6.395,35.469,15.292,56.646,23.8,56.646,16.513,0,34.192-78.707,34.192-195.875,0-52.608-3.691-102.054-10.394-139.231C-1228.257,2.86-1237.154-18.315-1245.661-18.315Z" transform="translate(1445.287 21.051)" fill="#f8ab16"/><path d="M-1202.737,375.854c-109.255,0-198.142-88.887-198.142-198.142S-1311.992-20.43-1202.737-20.43s198.142,88.887,198.142,198.142S-1093.481,375.854-1202.737,375.854Zm0-393.548c-107.747,0-195.406,87.658-195.406,195.406s87.659,195.406,195.406,195.406,195.406-87.659,195.406-195.406S-1094.989-17.694-1202.737-17.694Z" transform="translate(1401.737 21.28)" fill="#f8ab16"/><path d="M-1214.83,376.463c-82.912,0-150.366-89-150.366-198.392s67.454-198.393,150.366-198.393,150.369,89,150.369,198.393S-1131.915,376.463-1214.83,376.463Zm0-394.049c-81.4,0-147.63,87.77-147.63,195.656s66.226,195.656,147.63,195.656S-1067.2,285.955-1067.2,178.071-1133.424-17.586-1214.83-17.586Z" transform="translate(1414.874 21.319)" fill="#f8ab16"/><path d="M-1202.73,375.859c-109.257,0-198.144-88.886-198.144-198.142s88.887-198.141,198.144-198.141,198.141,88.885,198.141,198.141S-1093.475,375.859-1202.73,375.859Zm0-393.547c-107.748,0-195.407,87.658-195.407,195.4s87.659,195.406,195.407,195.406,195.4-87.658,195.4-195.406S-1094.984-17.688-1202.73-17.688Z" transform="translate(1401.739 21.282)" fill="#f8ab16"/><path d="M-1202.595,242.763c-52.96,0-102.772-9.584-140.26-26.986-37.821-17.558-58.652-41.027-58.652-66.085s20.83-48.527,58.652-66.085c37.487-17.4,87.3-26.986,140.26-26.986s102.773,9.584,140.261,26.986c37.821,17.558,58.652,41.027,58.652,66.085s-20.83,48.527-58.652,66.085C-1099.821,233.179-1149.634,242.763-1202.595,242.763Zm0-183.4c-108.171,0-196.175,40.523-196.175,90.334s88,90.334,196.175,90.334,196.176-40.523,196.176-90.334S-1094.423,59.358-1202.595,59.358Z" transform="translate(1401.506 49.647)" fill="#f8ab16"/><path d="M-1202.326,171.721c-97.628,0-198.611-13.813-198.611-36.928s100.984-36.927,198.611-36.927,198.612,13.812,198.612,36.927S-1104.7,171.721-1202.326,171.721Zm0-71.118c-52.607,0-102.052,3.69-139.229,10.393-35.469,6.395-56.646,15.292-56.646,23.8,0,16.512,78.707,34.192,195.875,34.192,52.607,0,102.052-3.691,139.229-10.394,35.469-6.393,56.646-15.291,56.646-23.8C-1006.451,118.28-1085.159,100.6-1202.326,100.6Z" transform="translate(1401.715 64.831)" fill="#f8ab16"/><path d="M-1202.73,375.859c-109.257,0-198.144-88.886-198.144-198.142s88.887-198.141,198.144-198.141,198.141,88.885,198.141,198.141S-1093.475,375.859-1202.73,375.859Zm0-393.547c-107.748,0-195.407,87.658-195.407,195.4s87.659,195.406,195.407,195.406,195.4-87.658,195.4-195.406S-1094.984-17.688-1202.73-17.688Z" transform="translate(1401.739 21.282)" fill="#f8ab16"/><path d="M-1202.954,315.993c-109.4,0-198.394-67.454-198.394-150.367s89-150.367,198.394-150.367,198.392,67.454,198.392,150.367S-1093.56,315.993-1202.954,315.993Zm0-298c-107.886,0-195.658,66.227-195.658,147.631s87.772,147.631,195.658,147.631S-1007.3,247.03-1007.3,165.625-1095.069,17.994-1202.954,17.994Z" transform="translate(1401.564 34.418)" fill="#f8ab16"/></g></svg>