<svg xmlns="http://www.w3.org/2000/svg" width="394.82" height="394.733" viewBox="0 0 394.82 394.733"><g transform="translate(-1106 -235.92)"><path d="M-1275.8,29.591c-108.828,0-197.367-88.539-197.367-197.367s88.539-197.367,197.367-197.367,197.366,88.539,197.366,197.367S-1166.972,29.591-1275.8,29.591Zm0-392.008c-107.326,0-194.641,87.315-194.641,194.641S-1383.127,26.866-1275.8,26.866s194.641-87.316,194.641-194.641S-1168.476-362.416-1275.8-362.416Z" transform="translate(2579.254 601.062)" fill="#f8ab16"/><path d="M-1276.1-173.285c-96.9,0-197.126-13.759-197.126-36.783S-1373-246.852-1276.1-246.852s197.128,13.759,197.128,36.783S-1179.2-173.285-1276.1-173.285Zm0-70.841c-52.212,0-101.286,3.677-138.184,10.353-35.2,6.368-56.217,15.231-56.217,23.7,0,16.448,78.115,34.058,194.4,34.058,52.212,0,101.288-3.677,138.184-10.353,35.2-6.368,56.219-15.231,56.219-23.7C-1081.7-226.516-1159.816-244.126-1276.1-244.126Z" transform="translate(2579.23 643.978)" fill="#f8ab16"/></g></svg>