<?xml version="1.0" encoding="utf-8"?>
<svg version="1.1" id="Layer_1" xmlns="http://www.w3.org/2000/svg" xmlns:xlink="http://www.w3.org/1999/xlink" x="0px" y="0px"
	 viewBox="0 0 200 66" style="enable-background:new 0 0 200 66;" xml:space="preserve">
<style type="text/css">
	.st0{fill:url(#SVGID_1_);}
	.st1{fill:url(#SVGID_00000134216079036716773990000015431361472917203640_);}
	.st2{fill:url(#SVGID_00000042737112457016274450000013586730027190879878_);}
	.st3{fill:#FFFFFF;}
	.st4{fill:#CD9337;}
</style>
<g>
	<g>
		<g>
			
				<linearGradient id="SVGID_1_" gradientUnits="userSpaceOnUse" x1="-13.0723" y1="-22.4964" x2="52.548" y2="-22.4964" gradientTransform="matrix(-0.3164 0.9486 -0.9486 -0.3164 17.7234 6.977)">
				<stop  offset="0" style="stop-color:#F7AA14"/>
				<stop  offset="1" style="stop-color:#CD9437"/>
			</linearGradient>
			<path class="st0" d="M22.436,63.942C5.247,58.208-4.039,39.625,1.695,22.436C7.429,5.247,26.012-4.039,43.201,1.695
				C60.39,7.429,69.676,26.012,63.942,43.201C58.208,60.39,39.624,69.676,22.436,63.942z"/>
			
				<linearGradient id="SVGID_00000116236783905304192050000000312435945831400340_" gradientUnits="userSpaceOnUse" x1="-12.8047" y1="-22.6098" x2="46.2209" y2="-22.6098" gradientTransform="matrix(-0.3164 0.9486 -0.9486 -0.3164 17.7234 6.977)">
				<stop  offset="0" style="stop-color:#F5CB13"/>
				<stop  offset="1" style="stop-color:#E29F2C"/>
			</linearGradient>
			<path style="fill:url(#SVGID_00000116236783905304192050000000312435945831400340_);" d="M24.546,57.976
				C9.084,52.818,0.731,36.103,5.889,20.641C11.047,5.18,27.762-3.173,43.224,1.985C58.685,7.142,67.038,23.858,61.88,39.319
				C56.723,54.781,40.007,63.134,24.546,57.976z"/>
			
				<linearGradient id="SVGID_00000067200156445338884620000008463545118002567580_" gradientUnits="userSpaceOnUse" x1="-12.5371" y1="-22.7233" x2="39.8938" y2="-22.7233" gradientTransform="matrix(-0.3164 0.9486 -0.9486 -0.3164 17.7234 6.977)">
				<stop  offset="0" style="stop-color:#F1E50F"/>
				<stop  offset="1" style="stop-color:#F8AC1A"/>
			</linearGradient>
			<path style="fill:url(#SVGID_00000067200156445338884620000008463545118002567580_);" d="M26.655,52.01
				C12.922,47.429,5.502,32.58,10.083,18.847C14.665,5.113,29.513-2.307,43.247,2.274C56.98,6.856,64.4,21.704,59.818,35.438
				C55.237,49.172,40.389,56.592,26.655,52.01z"/>
		</g>
		<circle class="st3" cx="51.126" cy="15.429" r="2.231"/>
	</g>
	<g>
		<g>
			<path class="st4" d="M76.977,47.568H73.75v-0.84h7.424v0.84h-3.227v8.344h-0.97V47.568z"/>
			<path class="st4" d="M92.79,55.072v0.84h-6.494v-9.184h6.297v0.84h-5.327v3.267h4.75v0.827h-4.75v3.41H92.79z"/>
			<path class="st4" d="M99.855,55.389c-0.731-0.404-1.305-0.962-1.72-1.675s-0.622-1.51-0.622-2.395
				c0-0.882,0.207-1.68,0.622-2.392c0.415-0.715,0.991-1.271,1.725-1.675c0.736-0.401,1.558-0.603,2.467-0.603
				c0.683,0,1.313,0.114,1.89,0.343c0.577,0.226,1.066,0.558,1.47,0.997l-0.617,0.617c-0.718-0.726-1.624-1.09-2.717-1.09
				c-0.726,0-1.388,0.167-1.98,0.5c-0.595,0.332-1.061,0.787-1.398,1.364c-0.338,0.577-0.505,1.225-0.505,1.94
				c0,0.718,0.167,1.366,0.505,1.943c0.338,0.577,0.803,1.031,1.398,1.364c0.593,0.332,1.255,0.5,1.98,0.5
				c1.103,0,2.007-0.367,2.717-1.103l0.617,0.617c-0.404,0.439-0.896,0.773-1.478,1.005c-0.579,0.231-1.212,0.348-1.895,0.348
				C101.404,55.992,100.583,55.79,99.855,55.389z"/>
			<path class="st4" d="M118.828,46.729v9.184h-0.957v-4.237h-5.747v4.237h-0.97v-9.184h0.97v4.093h5.747v-4.093H118.828z"/>
			<path class="st4" d="M132.913,46.729v9.184h-0.8l-5.904-7.453v7.453h-0.97v-9.184h0.8l5.917,7.451v-7.451H132.913z"/>
			<path class="st4" d="M140.994,55.381c-0.739-0.407-1.318-0.965-1.733-1.672c-0.415-0.71-0.622-1.504-0.622-2.39
				c0-0.882,0.207-1.677,0.622-2.387c0.415-0.707,0.994-1.265,1.733-1.672c0.739-0.407,1.563-0.611,2.472-0.611
				s1.73,0.202,2.461,0.603c0.728,0.404,1.305,0.96,1.725,1.675c0.42,0.712,0.63,1.51,0.63,2.392c0,0.885-0.21,1.683-0.63,2.395
				c-0.42,0.712-0.997,1.271-1.725,1.675c-0.731,0.401-1.552,0.603-2.461,0.603S141.733,55.787,140.994,55.381z M145.433,54.634
				c0.587-0.33,1.047-0.784,1.38-1.366c0.332-0.579,0.497-1.231,0.497-1.948c0-0.715-0.165-1.366-0.497-1.948
				c-0.332-0.579-0.792-1.034-1.38-1.364c-0.585-0.327-1.241-0.492-1.967-0.492c-0.726,0-1.385,0.165-1.975,0.492
				c-0.59,0.33-1.053,0.784-1.39,1.364c-0.338,0.582-0.505,1.233-0.505,1.948c0,0.718,0.167,1.369,0.505,1.948
				c0.338,0.582,0.8,1.037,1.39,1.366c0.59,0.327,1.249,0.492,1.975,0.492C144.191,55.125,144.848,54.961,145.433,54.634z"/>
			<path class="st4" d="M153.984,46.729h0.97v8.344h5.143v0.84h-6.114V46.729z"/>
			<path class="st4" d="M166.471,55.381c-0.739-0.407-1.318-0.965-1.733-1.672c-0.415-0.71-0.622-1.504-0.622-2.39
				c0-0.882,0.207-1.677,0.622-2.387c0.415-0.707,0.994-1.265,1.733-1.672c0.739-0.407,1.563-0.611,2.472-0.611
				s1.73,0.202,2.461,0.603c0.728,0.404,1.305,0.96,1.725,1.675c0.42,0.712,0.63,1.51,0.63,2.392c0,0.885-0.21,1.683-0.63,2.395
				c-0.42,0.712-0.997,1.271-1.725,1.675c-0.731,0.401-1.552,0.603-2.461,0.603S167.21,55.787,166.471,55.381z M170.91,54.634
				c0.587-0.33,1.047-0.784,1.38-1.366c0.332-0.579,0.497-1.231,0.497-1.948c0-0.715-0.165-1.366-0.497-1.948
				c-0.332-0.579-0.792-1.034-1.38-1.364c-0.585-0.327-1.241-0.492-1.967-0.492c-0.726,0-1.385,0.165-1.975,0.492
				c-0.59,0.33-1.053,0.784-1.39,1.364c-0.338,0.582-0.505,1.233-0.505,1.948c0,0.718,0.167,1.369,0.505,1.948
				c0.338,0.582,0.8,1.037,1.39,1.366c0.59,0.327,1.249,0.492,1.975,0.492C169.669,55.125,170.325,54.961,170.91,54.634z"/>
			<path class="st4" d="M186.058,51.319h0.933v3.503c-0.431,0.377-0.938,0.665-1.523,0.867c-0.587,0.202-1.204,0.303-1.85,0.303
				c-0.92,0-1.744-0.202-2.48-0.603c-0.734-0.404-1.31-0.962-1.73-1.675c-0.42-0.712-0.63-1.51-0.63-2.395
				c0-0.882,0.21-1.68,0.63-2.392c0.42-0.715,0.997-1.271,1.73-1.675c0.736-0.401,1.566-0.603,2.493-0.603
				c0.699,0,1.342,0.112,1.93,0.335c0.585,0.223,1.079,0.553,1.481,0.991l-0.603,0.617c-0.726-0.718-1.648-1.077-2.767-1.077
				c-0.744,0-1.417,0.165-2.015,0.492c-0.598,0.33-1.069,0.784-1.411,1.364c-0.34,0.582-0.51,1.233-0.51,1.948
				c0,0.718,0.17,1.366,0.51,1.943c0.343,0.577,0.811,1.031,1.406,1.364c0.593,0.332,1.263,0.5,2.007,0.5
				c0.944,0,1.744-0.237,2.4-0.71V51.319z"/>
			<path class="st4" d="M196.327,52.738v3.174h-0.957v-3.174l-3.673-6.01h1.037l3.147,5.157l3.15-5.157H200L196.327,52.738z"/>
		</g>
		<g>
			<path class="st4" d="M74.672,9.858h7.031l7.794,12.536L97.29,9.858h7.031v29.648h-6.48V20.15l-8.343,12.664h-0.17l-8.259-12.536
				v19.229h-6.396V9.858z"/>
			<path class="st4" d="M109.531,26.8V9.858h6.523v16.771c0,4.828,2.414,7.328,6.396,7.328c3.981,0,6.396-2.414,6.396-7.114V9.858
				h6.522v16.729c0,8.979-5.04,13.385-13.002,13.385C114.402,39.972,109.531,35.524,109.531,26.8z"/>
			<path class="st4" d="M140.578,9.858h13.554c3.768,0,6.693,1.058,8.64,3.006c1.651,1.653,2.542,3.981,2.542,6.778v0.084
				c0,4.786-2.583,7.794-6.354,9.192l7.242,10.588h-7.623l-6.354-9.487h-5.125v9.487h-6.523V9.858z M153.708,24.256
				c3.177,0,5-1.693,5-4.193V19.98c0-2.797-1.95-4.237-5.125-4.237h-6.481v8.513H153.708z"/>
			<path class="st4" d="M180.774,9.645h6.013l12.708,29.861h-6.82l-2.711-6.651h-12.536l-2.711,6.651h-6.651L180.774,9.645z
				 M187.636,27.095l-3.94-9.614l-3.938,9.614H187.636z"/>
		</g>
	</g>
</g>
</svg>
