<svg xmlns="http://www.w3.org/2000/svg" width="72" height="71.999" viewBox="0 0 72 71.999"><path d="M36-1281a35.78,35.78,0,0,1-14.013-2.829,35.884,35.884,0,0,1-11.443-7.715,35.884,35.884,0,0,1-7.715-11.443A35.776,35.776,0,0,1,0-1317a35.77,35.77,0,0,1,2.829-14.012,35.879,35.879,0,0,1,7.715-11.443,35.884,35.884,0,0,1,11.443-7.715A35.78,35.78,0,0,1,36-1353a35.78,35.78,0,0,1,14.013,2.829,35.884,35.884,0,0,1,11.443,7.715,35.879,35.879,0,0,1,7.715,11.443A35.77,35.77,0,0,1,72-1317a35.776,35.776,0,0,1-2.829,14.013,35.884,35.884,0,0,1-7.715,11.443,35.884,35.884,0,0,1-11.443,7.715A35.78,35.78,0,0,1,36-1281Zm-7.2-47.519v24.479l21.6-12.239-21.6-12.24Z" transform="translate(0 1353)" fill="#fff"/></svg>