<svg xmlns="http://www.w3.org/2000/svg" width="621.857" height="621.857" viewBox="0 0 621.857 621.857"><g transform="translate(-524.071 -198)"><path d="M444.682,257.082H264.03V434.756H180.652V257.082H0V178.667H180.652V0H264.03V178.667H444.682Z" transform="translate(831.49 198) rotate(45)" fill="#f2e500"/><g transform="translate(792.879 467.871)"><path d="M58.59,18.631a10.653,10.653,0,0,1,4.139-3.793,7.314,7.314,0,0,0-1-.068H44.746a11.378,11.378,0,0,0-8.888,5.13L27,35.241l16.5,9.524Z" transform="translate(-11.704 -14.77)" fill="#111"/><path d="M56.859,19.707,50.774,30.239l7.142,12.374-4.495,2.6,17.437.77L78.908,30.49l-4.495,2.6L66.687,19.708v0A10.635,10.635,0,0,0,62.6,15.94,9.122,9.122,0,0,0,56.859,19.707Z" transform="translate(-7.772 -14.576)" fill="#111"/><path d="M19.9,62.98a10.663,10.663,0,0,1-5.354-1.689,7.383,7.383,0,0,0,.439.9L23.478,76.9a11.392,11.392,0,0,0,8.888,5.132l17.716,0V62.98H19.9Z" transform="translate(-13.763 -7.076)" fill="#111"/><path d="M32.174,64.146l7.145-12.371,4.495,2.6L35.763,38.885l-17.44.773,4.495,2.6L15.1,55.633h0a10.624,10.624,0,0,0-1.214,5.424,9.13,9.13,0,0,0,6.132,3.086Z" transform="translate(-13.875 -10.782)" fill="#111"/><path d="M88.675,57.119,79.818,41.775,63.32,51.3,78.408,77.441a10.674,10.674,0,0,1,1.216,5.481,7.557,7.557,0,0,0,.558-.831l8.492-14.708A11.384,11.384,0,0,0,88.675,57.119Z" transform="translate(-5.697 -10.304)" fill="#111"/><path d="M72.523,65.167l-14.288,0,0-5.19L48.85,74.69l9.39,14.718V84.216l15.447,0,0,0a10.618,10.618,0,0,0,5.3-1.66A9.141,9.141,0,0,0,78.6,75.7Z" transform="translate(-8.09 -7.293)" fill="#111"/></g></g></svg>