<svg xmlns="http://www.w3.org/2000/svg" width="234.701" height="228.888" viewBox="0 0 234.701 228.888"><path d="M115.059,25.532A29.694,29.694,0,0,1,126.6,14.958a20.385,20.385,0,0,0-2.784-.188H76.471c-9.086,0-20.234,6.429-24.776,14.3L27,71.832,72.992,98.378Z" transform="translate(15.63 -14.77)" fill="#f2e500"/><path d="M67.734,26.439,50.774,55.8,70.68,90.29,58.151,97.524l48.6,2.147L129.194,56.5l-12.529,7.234L95.131,26.442v-.013a29.644,29.644,0,0,0-11.4-10.489C77.645,17.025,70.55,21.544,67.734,26.439Z" transform="translate(69.091 -12.139)" fill="#f2e500"/><path d="M29.471,66a29.721,29.721,0,0,1-14.923-4.707,20.581,20.581,0,0,0,1.225,2.5l23.668,41c4.545,7.861,15.69,14.306,24.776,14.306l49.383.01L113.6,66H29.471Z" transform="translate(-12.361 89.829)" fill="#f2e500"/><path d="M64.882,109.3,84.8,74.816,97.328,82.05,74.888,38.885,26.275,41.039,38.8,48.276,17.28,85.568h-.01a29.614,29.614,0,0,0-3.385,15.118c3.986,4.726,11.444,8.608,17.093,8.6Z" transform="translate(-13.875 39.451)" fill="#f2e500"/><path d="M134,84.544,109.308,41.775,63.32,68.331l42.057,72.859a29.753,29.753,0,0,1,3.388,15.277,21.07,21.07,0,0,0,1.556-2.316l23.671-41C138.534,105.279,138.541,92.412,134,84.544Z" transform="translate(97.3 45.949)" fill="#f2e500"/><path d="M114.835,74.447,75.01,74.44l.006-14.465L48.85,100.993l26.173,41.024V127.546l43.058-.007.013.007a29.6,29.6,0,0,0,14.784-4.626c2.1-5.818,1.735-14.218-1.095-19.111Z" transform="translate(64.765 86.87)" fill="#f2e500"/></svg>