<?xml version="1.0" standalone="no"?>
<!DOCTYPE svg PUBLIC "-//W3C//DTD SVG 20010904//EN"
 "http://www.w3.org/TR/2001/REC-SVG-20010904/DTD/svg10.dtd">
<svg version="1.0" xmlns="http://www.w3.org/2000/svg"
 width="768.000000pt" height="768.000000pt" viewBox="0 0 768.000000 768.000000"
 preserveAspectRatio="xMidYMid meet">
<metadata>
Created by potrace 1.10, written by Peter Selinger 2001-2011
</metadata>
<g transform="translate(0.000000,768.000000) scale(0.100000,-0.100000)"
fill="#ffffff" stroke="none">
<path d="M3560 7019 c-270 -22 -595 -95 -840 -189 -30 -12 -67 -25 -81 -30
-14 -4 -34 -12 -45 -17 -10 -6 -35 -17 -54 -26 -40 -17 -235 -114 -265 -131
-269 -151 -488 -318 -710 -541 -140 -140 -178 -184 -285 -325 -102 -136 -170
-239 -246 -375 -53 -93 -174 -350 -174 -368 0 -7 -6 -21 -14 -32 -7 -11 -16
-31 -19 -45 -3 -14 -16 -56 -30 -95 -160 -459 -206 -990 -131 -1490 22 -151
60 -327 86 -400 5 -16 14 -46 18 -65 8 -33 13 -50 45 -140 67 -185 208 -476
300 -615 22 -33 44 -68 50 -77 25 -41 105 -156 117 -169 7 -8 40 -48 72 -89
81 -102 360 -378 476 -471 85 -68 294 -215 331 -232 8 -4 28 -16 44 -26 60
-39 233 -128 325 -169 19 -8 44 -19 54 -25 11 -5 31 -13 45 -17 14 -5 51 -18
81 -30 97 -37 223 -77 325 -103 137 -34 163 -40 215 -47 30 -5 78 -13 105 -18
172 -35 534 -46 760 -24 253 25 583 94 713 148 18 8 39 14 47 14 8 0 29 6 47
14 18 8 74 31 123 51 80 33 295 136 350 168 11 7 43 25 70 41 128 75 368 246
445 318 14 12 64 58 111 100 190 171 424 462 565 703 16 27 34 59 41 70 22 38
140 280 158 325 17 45 29 72 59 143 9 21 16 44 16 52 0 8 6 29 14 47 54 130
123 460 148 713 22 226 11 588 -24 760 -5 28 -13 75 -18 105 -7 52 -13 78 -47
215 -26 102 -66 228 -103 325 -12 30 -25 67 -30 81 -4 14 -12 34 -17 45 -6 10
-17 35 -25 54 -41 92 -130 265 -169 325 -10 17 -22 37 -26 45 -16 35 -162 242
-232 330 -160 200 -458 481 -653 615 -82 57 -185 122 -256 162 -189 108 -525
254 -652 283 -19 4 -48 13 -65 18 -71 25 -246 63 -395 86 -222 34 -510 44
-750 25z m585 -1600 c4 -5 8 -455 5 -617 0 -10 -67 -12 -317 -10 l-318 3 -3
305 c-2 282 -1 306 15 318 14 10 84 12 315 10 163 -2 299 -6 303 -9z m0 -1278
c7 -13 7 -1889 0 -1902 -7 -10 -593 -13 -619 -3 -14 6 -16 98 -16 948 0 719 3
945 12 954 15 15 613 17 623 3z"/>
</g>
</svg>
