<?xml version="1.0" standalone="no"?>
<!DOCTYPE svg PUBLIC "-//W3C//DTD SVG 20010904//EN"
 "http://www.w3.org/TR/2001/REC-SVG-20010904/DTD/svg10.dtd">
<svg version="1.0" xmlns="http://www.w3.org/2000/svg"
 width="900.000000pt" height="852.000000pt" viewBox="0 0 900.000000 852.000000"
 preserveAspectRatio="xMidYMid meet">
<metadata>
Created by potrace 1.10, written by Peter Selinger 2001-2011
</metadata>
<g transform="translate(0.000000,852.000000) scale(0.100000,-0.100000)"
fill="#ffffff" stroke="none">
<path d="M4215 8125 c-365 -29 -777 -127 -1105 -265 -41 -17 -88 -36 -105 -42
-79 -29 -443 -222 -523 -277 -15 -10 -70 -47 -122 -82 -329 -218 -667 -543
-942 -906 -231 -306 -450 -730 -569 -1103 -12 -36 -28 -85 -36 -110 -30 -95
-88 -341 -108 -465 -26 -153 -55 -503 -55 -654 0 -527 120 -1096 333 -1576 81
-182 99 -219 175 -350 126 -217 226 -365 347 -514 33 -41 71 -88 85 -105 147
-182 444 -455 682 -629 97 -71 143 -101 293 -194 77 -47 399 -210 490 -247
258 -107 586 -203 800 -236 39 -6 90 -16 115 -21 77 -17 318 -39 505 -45 203
-7 520 14 690 46 55 10 120 22 145 25 167 25 424 100 720 210 108 40 309 138
473 229 141 79 359 226 462 311 28 23 59 48 71 56 25 17 145 122 228 199 52
49 220 228 301 320 17 19 67 82 111 140 352 459 599 996 722 1570 109 509 109
1102 0 1620 -81 386 -237 803 -410 1097 -26 45 -48 85 -48 88 0 13 -175 272
-253 375 -115 152 -227 278 -379 427 -273 269 -528 460 -863 646 -63 34 -312
157 -320 157 -3 0 -25 8 -48 19 -76 34 -283 110 -358 131 -155 44 -428 108
-533 124 -272 43 -658 55 -971 31z m516 -775 c108 -5 216 -14 240 -19 24 -5
81 -14 126 -20 214 -27 541 -131 809 -256 348 -164 653 -386 933 -680 63 -66
141 -155 175 -198 79 -101 225 -312 251 -362 11 -21 43 -79 70 -129 28 -50 61
-116 74 -146 13 -30 30 -68 37 -85 80 -177 168 -468 199 -655 8 -47 18 -110
24 -140 5 -30 15 -141 21 -246 28 -429 -37 -879 -180 -1264 -219 -586 -579
-1067 -1075 -1440 -470 -352 -1037 -567 -1613 -611 -156 -12 -532 -6 -637 10
-33 5 -92 14 -132 20 -97 14 -347 76 -458 113 -613 204 -1127 573 -1531 1098
-56 73 -166 240 -209 315 -58 104 -145 275 -158 312 -8 21 -35 90 -60 153 -25
63 -55 149 -66 190 -12 41 -26 90 -32 109 -16 47 -35 141 -67 316 -25 144 -27
164 -26 490 0 324 1 347 27 485 56 308 122 539 211 735 7 17 24 55 37 85 108
247 328 579 535 807 81 89 272 267 375 349 83 66 301 214 369 250 269 145 372
192 549 250 211 69 421 124 479 124 16 0 63 7 104 15 41 9 142 19 224 24 82 4
156 9 164 9 8 1 103 -3 211 -8z"/>
<path d="M4186 6158 c-14 -19 -16 -71 -16 -368 0 -297 2 -349 16 -368 l15 -22
368 0 c272 0 370 3 379 12 9 9 12 107 12 380 0 353 -1 368 -19 378 -13 6 -151
10 -380 10 l-360 0 -15 -22z"/>
<path d="M4208 4613 c-9 -2 -21 -16 -27 -31 -18 -42 -11 -2286 7 -2304 10 -10
93 -14 369 -16 308 -2 359 -1 379 13 l24 15 0 1145 c0 1132 0 1145 -20 1165
-19 19 -33 20 -367 19 -192 -1 -355 -3 -365 -6z"/>
</g>
</svg>
